<?xml version="1.0" encoding="UTF-8" standalone="no"?>
<svg
   xmlns:dc="http://purl.org/dc/elements/1.1/"
   xmlns:cc="http://creativecommons.org/ns#"
   xmlns:rdf="http://www.w3.org/1999/02/22-rdf-syntax-ns#"
   xmlns:svg="http://www.w3.org/2000/svg"
   xmlns="http://www.w3.org/2000/svg"
   xmlns:sodipodi="http://sodipodi.sourceforge.net/DTD/sodipodi-0.dtd"
   xmlns:inkscape="http://www.inkscape.org/namespaces/inkscape"
   width="100"
   height="75"
   viewBox="0 0 100 75"
   version="1.1"
   id="svg21"
   sodipodi:docname="final-webauthn-logo-logo-black.svg"
   inkscape:version="0.92.4 (5da689c313, 2019-01-14)">
  <metadata
     id="metadata25">
    <rdf:RDF>
      <cc:Work
         rdf:about="">
        <dc:format>image/svg+xml</dc:format>
        <dc:type
           rdf:resource="http://purl.org/dc/dcmitype/StillImage" />
        <dc:title />
      </cc:Work>
    </rdf:RDF>
  </metadata>
  <sodipodi:namedview
     pagecolor="#ffffff"
     bordercolor="#666666"
     borderopacity="1"
     objecttolerance="10"
     gridtolerance="10"
     guidetolerance="10"
     inkscape:pageopacity="0"
     inkscape:pageshadow="2"
     inkscape:window-width="1366"
     inkscape:window-height="705"
     id="namedview23"
     showgrid="false"
     inkscape:zoom="2.4143222"
     inkscape:cx="-71.88097"
     inkscape:cy="13.284372"
     inkscape:window-x="-8"
     inkscape:window-y="-8"
     inkscape:window-maximized="1"
     inkscape:current-layer="svg21" />
  <defs
     id="defs5">
    <clipPath
       id="clip-logo-color">
      <rect
         width="1046"
         height="782"
         id="rect2"
         x="0"
         y="0" />
    </clipPath>
  </defs>
  <rect
     style="fill:none;stroke:none;stroke-width:0.09575499"
     y="0"
     x="0"
     id="rect7"
     height="75"
     width="100" />
  <g
     id="g820"
     transform="matrix(0.09563237,0,0,0.09563237,0.11912456,0.32161374)">
    <path
       id="Path_21"
       d="M 643.30859,78.769531 A 311.334,311.334 0 0 0 345.14062,360 h 20.40235 a 289.042,289.042 0 0 1 82.92578,-174.54688 215.733,215.733 0 0 0 34.22266,25.73633 C 460.17112,254.7807 446.39255,305.86153 442.62109,360 h 5.02539 c 3.8678,-54.33258 17.94179,-104.40069 39.43946,-146.19141 27.569,16.079 60.10045,27.94622 95.43945,34.82422 -5.966,42.447 -9.17234,89.97919 -9.27734,139.36719 h -31.36914 v 5 h 31.36914 c 0.1,49.388 3.31134,96.92019 9.27734,139.36719 -35.338,6.877 -67.87336,18.74422 -95.44336,34.82422 -17.47888,-33.97281 -30.04728,-73.42348 -36.2168,-116.1875 h -5.09179 c 6.07401,42.96496 18.60639,83.36264 36.91797,118.80664 A 215.733,215.733 0 0 0 448.46875,595.54688 289.042,289.042 0 0 1 364.97461,415.00391 H 344.54688 A 311.334,311.334 0 0 0 966,390.02539 311,311 0 0 0 940.5332,266.57227 311.334,311.334 0 0 0 643.30859,78.769531 Z M 654.97461,99 c 5.767,0 11.50103,0.177672 17.20703,0.513672 13.5,12.582998 26.22144,39.609018 36.39844,78.291018 a 611.728,611.728 0 0 1 13.20703,66.32617 376.74,376.74 0 0 1 -66.81641,5.90625 376.74,376.74 0 0 1 -66.81836,-5.90625 611.762,611.762 0 0 1 13.21094,-66.33008 c 10.18,-38.672 22.90139,-65.7012 36.40039,-78.283202 C 643.47267,99.186578 649.20761,99 654.97461,99 Z m -24.61914,1.04102 c -12.772,14.539 -24.35217,40.49923 -33.82617,76.49023 a 616.2,616.2 0 0 0 -13.28907,66.67578 c -34.787,-6.789 -66.77107,-18.47878 -93.83007,-34.30078 25.411,-47.537 60.55481,-83.85011 101.13281,-102.78711 a 291.609,291.609 0 0 1 39.8125,-6.07812 z m 49.24609,0.008 a 290.946,290.946 0 0 1 40.15625,6.23242 c 40.43,18.983 75.44425,55.22405 100.78125,102.62305 -27.059,15.824 -59.04308,27.51378 -93.83008,34.30078 a 616.243,616.243 0 0 0 -13.2871,-66.67383 c -9.473,-35.988 -21.05132,-61.94142 -33.82032,-76.48242 z m -110.05859,11.63476 c -24.247,15.05 -46.53163,36.59983 -65.76563,64.04883 a 302.406,302.406 0 0 0 -18.74609,30.55274 210.734,210.734 0 0 1 -33.00586,-24.81446 289.371,289.371 0 0 1 117.51758,-69.78711 z m 171.23633,0.22657 a 291.173,291.173 0 0 1 117.20117,69.51172 210.8,210.8 0 0 1 -33.0625,24.86328 302.411,302.411 0 0 0 -18.74609,-30.55274 c -19.13601,-27.309 -41.28858,-48.78226 -65.39258,-63.82226 z m 120.75,73.49804 a 291,291 0 0 1 60.65039,89.5838 A 288.93,288.93 0 0 1 945.96875,388 h -77.58203 c -0.363,-64.464 -14.75795,-125.76955 -41.12695,-176.81055 A 215.65,215.65 0 0 0 861.5293,185.4082 Z m -38.66602,28.40039 C 848.00928,262.68959 863.01172,322.89 863.38672,388 h -126.6875 c -0.1,-49.388 -3.30939,-96.92119 -9.27539,-139.36719 35.337,-6.878 67.87045,-18.74522 95.43945,-34.82422 z m -235.41992,35.73633 a 381.41,381.41 0 0 0 67.53125,5.9668 381.417,381.417 0 0 0 67.53125,-5.9668 c 5.913,42.152 9.08922,89.37108 9.19922,138.45508 h -43.61719 c -1.0142,1.75284 -2.16735,3.42571 -3.45117,5 h 47.0625 c -0.1,49.084 -3.28122,96.30008 -9.19922,138.45508 a 385.057,385.057 0 0 0 -135.0625,0 C 581.5305,489.30008 578.35305,442.084 578.24805,393 h 47.91211 c -1.26456,-1.58367 -2.3744,-3.25968 -3.34766,-5 h -44.56445 c 0.105,-49.084 3.28231,-96.30008 9.19531,-138.45508 z M 343.52734,380 a 311.334,311.334 0 0 0 0.23633,15.00391 h 20.30664 A 289.042,289.042 0 0 1 363.98047,393 h 77.58203 c 0.0723,12.81235 0.7083,25.49674 1.87305,38.00391 h 5.04101 C 447.293,418.55938 446.63862,405.878 446.56445,393 h 75.31446 v -5 h -75.31446 c 0.0154,-2.67618 0.0644,-5.34085 0.12891,-8 h -5.00391 c -0.0632,2.66177 -0.11186,5.32687 -0.12695,8 h -77.58203 a 289.042,289.042 0 0 1 0.44726,-8 z m 308.92578,8 0.51954,0.29102 L 652.05078,393 h 6.62891 L 657.75781,388.28906 658.27344,388 Z m 84.2461,5 h 126.6875 c -0.375,65.111 -15.37253,125.31541 -40.51953,174.19141 -27.57,-16.08 -60.09841,-27.94722 -95.44141,-34.82422 5.966,-42.447 9.17344,-89.97919 9.27344,-139.36719 z m 131.6875,0 H 945.9707 A 289.04,289.04 0 0 1 861.48242,595.54688 215.723,215.723 0 0 0 827.25977,569.81055 C 853.62877,518.76955 868.02372,457.463 868.38672,393 Z M 663.98047,530.11914 a 380.866,380.866 0 0 1 57.8125,5.80078 611.728,611.728 0 0 1 -13.20703,66.32422 c -10.18,38.677 -22.89944,65.70111 -36.39844,78.28711 -5.709,0.331 -11.44689,0.51953 -17.21289,0.51953 -5.766,0 -11.49894,-0.18853 -17.21094,-0.51953 -13.5,-12.586 -26.21939,-39.61011 -36.40039,-78.28711 a 611.761,611.761 0 0 1 -13.20703,-66.32422 380.866,380.866 0 0 1 75.82422,-5.80078 z m 62.72851,6.72461 c 34.789,6.789 66.77399,18.47878 93.83399,34.30078 -25.412,47.529 -60.55872,83.84816 -101.13672,102.78516 a 291.6,291.6 0 0 1 -39.81055,6.08008 c 12.771,-14.539 24.35118,-40.50024 33.82618,-76.49024 a 616.26,616.26 0 0 0 13.2871,-66.67578 z m -143.46875,0.004 a 616.546,616.546 0 0 0 13.28907,66.67382 c 9.474,35.994 21.05417,61.95124 33.82617,76.49024 a 291.582,291.582 0 0 1 -39.8125,-6.08008 c -40.578,-18.937 -75.72472,-55.25616 -101.13672,-102.78516 27.06,-15.825 59.04498,-27.51382 93.83398,-34.29882 z m -98.20898,36.91601 a 302.178,302.178 0 0 0 18.74609,30.55274 c 19.234,27.45 41.51863,48.99882 65.76563,64.04882 A 289.383,289.383 0 0 1 452.01172,598.5918 210.881,210.881 0 0 1 485.03125,573.76367 Z m 339.88672,0 a 210.882,210.882 0 0 1 33.01953,24.82813 289.387,289.387 0 0 1 -117.53125,69.77343 c 24.248,-15.05 46.53062,-36.59882 65.76563,-64.04882 a 302.183,302.183 0 0 0 18.74609,-30.55274 z"
       style="fill:#000000"
       inkscape:connector-curvature="0" />
    <path
       id="Path_22"
       data-name="Path 22"
       d="M 514.509,370 H 266.441 c -8.78,-47.9 -52.914,-83.47 -104.024,-78.1 -45.134,4.739 -80.654,41.278 -84.816,86.469 -5.258,57.1 39.394,105.273 95,105.273 46.687,0 85.646,-33.955 93.836,-78.639 h 164.442 v 36 h 35 V 405 h 31 v 53 h 35 V 370 Z M 172.3,448.411 a 60.686,60.686 0 1 1 60.686,-60.685 60.754,60.754 0 0 1 -60.686,60.685 z"
       inkscape:connector-curvature="0"
       style="fill:#000000" />
    <path
       id="Path_24"
       data-name="Path 24"
       d="M 683.153,369.241 A 27.788,27.788 0 1 0 641.77,393.473 L 627.578,466 h 55.575 l -14.192,-72.527 a 27.771,27.771 0 0 0 14.192,-24.232 z"
       inkscape:connector-curvature="0"
       style="fill:#000000" />
  </g>
</svg>
